<svg xmlns="http://www.w3.org/2000/svg" width="64" height="48.591" viewBox="0 0 64 48.591"><defs><style>.a{fill:#fff;}</style></defs><g transform="translate(-13.838 -25.335)"><path class="a" d="M83.774,96.865h23.772a3.468,3.468,0,0,1,3.465,3.465v31.681a3.468,3.468,0,0,1-3.465,3.465H55.855a3.468,3.468,0,0,1-3.465-3.465v-11.8a.965.965,0,0,1,1.931,0v11.8a1.536,1.536,0,0,0,1.535,1.535h51.691a1.536,1.536,0,0,0,1.535-1.535V100.33a1.536,1.536,0,0,0-1.535-1.535H83.774a.965.965,0,1,1,0-1.931Z" transform="translate(-33.173 -61.551)"/><path class="a" d="M282.761,151.868c-.227,0-.411-.432-.411-.965l1.566-5.928c0-.533.184-.965.411-.965h24.15c.227,0,.411.432.411.965V150.9c0,.533-.184.965-.411.965Zm25.305-5.928H284.5l-1.332,4h24.894Z" transform="translate(-231.051 -102.118)"/><path class="a" d="M344.435,280.959H333a.965.965,0,0,1-.965-.965v-5.84a.965.965,0,0,1,.965-.965h11.435a.965.965,0,0,1,.965.965v5.84A.965.965,0,0,1,344.435,280.959Zm-10.469-1.93h9.5V275.12h-9.5Z" transform="translate(-273.804 -213.275)"/><g transform="translate(13.838 25.335)"><path class="a" d="M13.838,45.153A19.818,19.818,0,1,1,33.656,64.97,19.818,19.818,0,0,1,13.838,45.153ZM33.656,27.411A17.763,17.763,0,0,0,15.914,45.153h0A17.742,17.742,0,1,0,33.656,27.411Z" transform="translate(-13.838 -25.335)"/><path class="a" d="M60.11,60.7a1.038,1.038,0,0,1,1.169-1.716,21.985,21.985,0,0,0,23.595,0A1.038,1.038,0,0,1,86.042,60.7a24.055,24.055,0,0,1-25.932,0Z" transform="translate(-53.264 -54.138)"/><path class="a" d="M60.635,240.859a1.038,1.038,0,0,1-.6-1.9,24.073,24.073,0,0,1,25.942,0,1.038,1.038,0,0,1-1.164,1.717,21.991,21.991,0,0,0-23.6,0,1.039,1.039,0,0,1-.583.18Z" transform="translate(-53.204 -205.894)"/><path class="a" d="M75.689,45.153c0-11.112,4.914-19.818,11.189-19.818s11.189,8.7,11.189,19.818S93.152,64.97,86.878,64.97,75.689,56.264,75.689,45.153ZM86.878,27.411c-4.939,0-9.113,8.125-9.113,17.742s4.173,17.742,9.113,17.742,9.113-8.126,9.113-17.742-4.173-17.742-9.113-17.742Z" transform="translate(-67.06 -25.335)"/><path class="a" d="M148.447,63.932V26.373a1.038,1.038,0,0,1,2.076,0v37.56a1.038,1.038,0,0,1-2.076,0Z" transform="translate(-129.667 -25.335)"/><path class="a" d="M13.838,160.982a1.038,1.038,0,0,1,1.038-1.038h37.56a1.038,1.038,0,0,1,0,2.076H14.876A1.038,1.038,0,0,1,13.838,160.982Z" transform="translate(-13.838 -141.164)"/></g></g></svg>