<svg xmlns="http://www.w3.org/2000/svg" width="96" height="50.813" viewBox="0 0 96 50.813"><defs><style>.a{fill:#fff;}</style></defs><path class="a" d="M283.265,423.085c-.022.029-.377.616-.058,1.007a.8.8,0,0,0,.638.319,1.037,1.037,0,0,0,.522-.145l.007-.007.036-.036a6.269,6.269,0,0,0,.377-7.869l-.036-.051a.958.958,0,0,0-.565-.2.778.778,0,0,0-.522.2c-.464.4-.094,1.094-.094,1.1l.022.036a4.669,4.669,0,0,1-.3,5.615Z" transform="translate(-269.839 -395.262)"/><path class="a" d="M338.726,376.694a.732.732,0,0,0-.007.935.836.836,0,0,0,.688.3h0a1.391,1.391,0,0,0,.406-.065l.015-.007.036-.036a12.1,12.1,0,0,0,.63-16.129l-.043-.043a.92.92,0,0,0-.5-.152.773.773,0,0,0-.5.181.852.852,0,0,0-.167,1.072l.029.036a10.49,10.49,0,0,1-.558,13.875Z" transform="translate(-321.293 -344.618)"/><path class="a" d="M397.557,328.691h0a.968.968,0,0,0,.391-.087l.007-.007.036-.036a18.2,18.2,0,0,0,.891-24.765l-.043-.043a1,1,0,0,0-.514-.152.774.774,0,0,0-.514.2.853.853,0,0,0-.138,1.058l.036.043a16.432,16.432,0,0,1-.826,22.5l-.036.043c0,.007-.348.594.065.985A.955.955,0,0,0,397.557,328.691Z" transform="translate(-375.241 -290.913)"/><path class="a" d="M451.55,283.292h0a1.238,1.238,0,0,0,.5-.123l.007-.007.036-.036a23.724,23.724,0,0,0,5.108-7.4,24.085,24.085,0,0,0,.616-17.766,23.67,23.67,0,0,0-4.579-7.724l-.043-.043a1.24,1.24,0,0,0-.435-.087.776.776,0,0,0-.522.181.787.787,0,0,0-.2,1.014l.036.036a22.376,22.376,0,0,1,5.543,13.919,22.847,22.847,0,0,1-.116,3.224,22.387,22.387,0,0,1-6.5,13.484l-.029.029a.862.862,0,0,0,0,1.029A.7.7,0,0,0,451.55,283.292Z" transform="translate(-425.401 -241.289)"/><path class="a" d="M662.029,305.483a.71.71,0,0,0-.471-.246,22.356,22.356,0,0,1-4.586-.565,14.745,14.745,0,0,1-2.8-2.3c-.239-.232-.485-.471-.724-.688-11.441-10.622-14.042-10.963-16.549-11.3a2.856,2.856,0,0,0-.377-.022,37.616,37.616,0,0,0-6.514,1.253c-.239.058-.58.138-.985.232l-17.94-9.187a1.515,1.515,0,0,0-2.036.652l-6.362,12.426a1.51,1.51,0,0,0,.652,2.029l19.433,9.948a1.515,1.515,0,0,0,2.036-.652l.514-1.007a7.161,7.161,0,0,0,.659,2.464,12.429,12.429,0,0,0,3.05,2.065,9.288,9.288,0,0,0,2.094,3.913,1.4,1.4,0,0,0,.442.348,4.886,4.886,0,0,0,2.116.355,17.907,17.907,0,0,0,2.166-.152,15.742,15.742,0,0,0,4.137-.942l.138-.087.333-.217.21.145a30.853,30.853,0,0,0,3.753,2.391,9.762,9.762,0,0,0,4.478,1.224,6.768,6.768,0,0,0,.855-.051c.37-.043,1.217-.275,2.029-.493.79-.21,1.529-.413,1.819-.449l.152-.014a15.933,15.933,0,0,1,1.717-.13c.261,0,.522.014.8.036h.058a.6.6,0,0,0,.616-.449.468.468,0,0,0-.051-.4.6.6,0,0,0-.384-.232c-.188-.022-.362-.043-.529-.058a12.508,12.508,0,0,0-1.551-.116,7.542,7.542,0,0,0-.964.058,21.427,21.427,0,0,0-2.13.514c-.746.2-1.456.391-1.732.427a5.748,5.748,0,0,1-.71.043c-2.674,0-5.159-1.739-7.347-3.3a9.651,9.651,0,0,0,1.167-1.29c.478.217,1.029.456,1.688.732h.007a.628.628,0,0,0,.138.014.692.692,0,0,0,.667-.485.58.58,0,0,0-.312-.739c-4.123-1.71-4.565-2.21-7.463-5.507-.413-.471-.884-1.007-1.42-1.609-1.514-1.7-4.891-1.913-7.659-1.913H627.33a6.743,6.743,0,0,1-.746-.022,9.619,9.619,0,0,1-5.115-4.057,2.089,2.089,0,0,1-.109-1.949,1.116,1.116,0,0,1,1.109-.616,6.241,6.241,0,0,1,1.884.413,35.3,35.3,0,0,0,9.231,1.471,8.18,8.18,0,0,1,2.507.659c.478.181.978.37,1.514.522.181.051.37.109.572.174a9.369,9.369,0,0,0,2.855.558c.109,0,.21,0,.319-.007h.014a.842.842,0,0,0,.6-.725c.022-.42-.435-.565-.681-.58h-.014c-.08.007-.159.007-.246.007a8.219,8.219,0,0,1-2.456-.5c-.21-.065-.42-.13-.616-.188-.485-.138-.949-.312-1.406-.485a9.464,9.464,0,0,0-2.906-.746c-1.167-.058-2.152-.13-3.079-.232l.623-1.21a1.514,1.514,0,0,0-.391-1.862,38.121,38.121,0,0,1,5.731-1.109,1.951,1.951,0,0,1,.225.014c2.3.3,4.7.616,15.832,10.963.232.217.471.449.71.674a16.168,16.168,0,0,0,3.065,2.5,15.121,15.121,0,0,0,5.072.6h.043a.649.649,0,0,0,.667-.507A.6.6,0,0,0,662.029,305.483ZM641.5,311.076a8.153,8.153,0,0,1-2.087,1.848l-.13.08a17.461,17.461,0,0,1-3.674.754,16.732,16.732,0,0,1-1.935.13c-1.109,0-1.507-.181-1.565-.246a9.652,9.652,0,0,1-1.442-2.2,7.87,7.87,0,0,0,2.7.956,1.1,1.1,0,0,0,.188-.014c.37-.065,4.239-1.319,5.862-2.71A11.463,11.463,0,0,0,641.5,311.076Zm-5.043-4.521c.8.906,1.435,1.63,2.014,2.224a20,20,0,0,1-5.115,2.311c-.848-.007-5.673-2.616-6.268-3.268a6.214,6.214,0,0,1-.587-2.485,16.4,16.4,0,0,0,1.782,1.051c.391.2.746.391,1.087.58l.022.014c.29.159.507.283.71.384a5.152,5.152,0,0,0,2.377.688A7.8,7.8,0,0,0,636.452,306.555Zm-8.709-3.087h.558c2.319,0,5.543.152,6.724,1.478.188.217.37.42.543.616a6.207,6.207,0,0,1-3.1,1.188,5.043,5.043,0,0,1-2.449-.9l-.014-.007c-.341-.188-.717-.4-1.138-.616a13.288,13.288,0,0,1-3-2.029A10.17,10.17,0,0,0,627.743,303.469Zm2.362-9.368-.819,1.6a26.287,26.287,0,0,1-4.543-1.022,7.448,7.448,0,0,0-2.282-.471,2.369,2.369,0,0,0-2.282,1.319,3.386,3.386,0,0,0,.094,3.123,9.743,9.743,0,0,0,3.181,3.384,4.719,4.719,0,0,0,1.507,2.094l-1.224,2.391a.313.313,0,0,1-.283.174.33.33,0,0,1-.145-.036l-19.418-9.941a.328.328,0,0,1-.159-.181.278.278,0,0,1,.022-.239l6.362-12.426a.313.313,0,0,1,.283-.174.33.33,0,0,1,.145.036l19.425,9.948a.328.328,0,0,1,.159.181A.34.34,0,0,1,630.105,294.1Z" transform="translate(-566.141 -271.342)"/><path class="a" d="M158.053,171.807a.944.944,0,0,0-.167.014h-.014l-.007.007a41.562,41.562,0,0,1-22.657,6.318c-9.021,0-17.5-2.543-23.867-7.159-6.311-4.572-9.789-10.644-9.789-17.085s3.478-12.506,9.789-17.085c6.369-4.615,14.846-7.159,23.867-7.159s17.5,2.543,23.867,7.159a27.219,27.219,0,0,1,5.3,4.97,1.245,1.245,0,0,0,.877.522.573.573,0,0,0,.478-.2.432.432,0,0,0,.043-.377v-.007l-.007-.007a27.954,27.954,0,0,0-6.014-5.833,37.384,37.384,0,0,0-11.049-5.405,47,47,0,0,0-26.982,0,37.384,37.384,0,0,0-11.049,5.405,26.71,26.71,0,0,0-7.5,8.072,19.288,19.288,0,0,0,0,19.911,26.6,26.6,0,0,0,7.5,8.064,37.384,37.384,0,0,0,11.049,5.405,47,47,0,0,0,26.982,0,38.472,38.472,0,0,0,9.224-4.166c.029-.014.746-.384.688-.935C158.589,171.959,158.379,171.807,158.053,171.807Z" transform="translate(-100.4 -128.5)"/></svg>