<svg xmlns="http://www.w3.org/2000/svg" width="64" height="66.377" viewBox="0 0 64 66.377"><defs><style>.a{fill:#fff;}</style></defs><path class="a" d="M68.19,28.426a.083.083,0,0,0,0-.017,3.373,3.373,0,0,0-3.348-2.864H50.7l-1.188-8.522c0-.006,0-.012,0-.017a3.831,3.831,0,0,0-3.8-3.252H42.175V10.42a10.42,10.42,0,1,0-20.839,0v3.336H17.8A3.83,3.83,0,0,0,14,17.008c0,.006,0,.011,0,.017L8.674,55.218a.877.877,0,0,0-.01.138,6.707,6.707,0,0,0,6.7,6.7H33.8a5.789,5.789,0,0,0,5.593,4.322h27.5a5.787,5.787,0,0,0,5.781-5.78.951.951,0,0,0-.01-.138ZM23.332,10.42a8.424,8.424,0,1,1,16.848,0v3.336H23.332Zm-12.671,45L15.973,17.31a1.844,1.844,0,0,1,1.83-1.559h3.534v5.222a1,1,0,1,0,2,0V15.752H40.18v5.221a1,1,0,0,0,2,0V15.752h3.534a1.843,1.843,0,0,1,1.83,1.558l1.148,8.237H41.434a3.372,3.372,0,0,0-3.348,2.863c0,.006,0,.012,0,.017L33.674,60.06H15.364A4.709,4.709,0,0,1,10.66,55.421Zm56.224,8.96h-27.5A3.788,3.788,0,0,1,35.6,60.663l4.453-31.951a1.387,1.387,0,0,1,1.375-1.17H64.839a1.387,1.387,0,0,1,1.375,1.17l4.455,31.951a3.789,3.789,0,0,1-3.784,3.719Z" transform="translate(-8.665)"/><path class="a" d="M274.664,218.963a1,1,0,0,0-1,1v4.575a6.9,6.9,0,0,1-13.809,0v-4.575a1,1,0,1,0-2,0v4.575a8.9,8.9,0,0,0,17.8,0v-4.575A1,1,0,0,0,274.664,218.963Z" transform="translate(-222.29 -187.707)"/></svg>