<svg xmlns="http://www.w3.org/2000/svg" width="64" height="73.563" viewBox="0 0 64 73.563"><defs><style>.a{fill:#fff;}</style></defs><g transform="translate(0 0)"><path class="a" d="M253.4,118.313a1.066,1.066,0,1,1,0-2.132,29.847,29.847,0,0,0,10.923-57.635,1.066,1.066,0,1,1,.78-1.985,31.979,31.979,0,0,1-11.7,61.752Z" transform="translate(-221.418 -49.559)"/><path class="a" d="M72.252,104.484a1.07,1.07,0,0,1-.39-.075,31.974,31.974,0,0,1,11.7-61.75,1.066,1.066,0,1,1,0,2.132,29.847,29.847,0,0,0-10.921,57.636,1.066,1.066,0,0,1-.389,2.056Z" transform="translate(-51.527 -37.864)"/><path class="a" d="M222.265,23.286a1.067,1.067,0,0,1-.754-1.821l4.047-4.047-4.047-4.048a1.067,1.067,0,0,1,1.509-1.509l4.8,4.8a1.067,1.067,0,0,1,0,1.509l-4.8,4.8A1.067,1.067,0,0,1,222.265,23.286Z" transform="translate(-195.057 -11.561)"/><path class="a" d="M258.2,424.672a1.066,1.066,0,0,1-.754-.313l-4.8-4.8a1.067,1.067,0,0,1,0-1.509l4.8-4.8a1.067,1.067,0,0,1,1.509,1.509l-4.047,4.047,4.047,4.048a1.067,1.067,0,0,1-.754,1.821Z" transform="translate(-221.395 -351.11)"/><g transform="translate(24.031 19.979)"><path class="a" d="M215.5,174.13a7.969,7.969,0,1,1,7.969-7.969h0a1.738,1.738,0,0,1-3.475,0,4.493,4.493,0,1,0-4.493,4.493h0a1.738,1.738,0,0,1,0,3.475Z" transform="translate(-207.532 -155.59)"/><path class="a" d="M215.5,254.939a7.977,7.977,0,0,1-7.969-7.969,1.738,1.738,0,0,1,3.475,0,4.493,4.493,0,1,0,4.493-4.493,1.738,1.738,0,0,1,0-3.475,7.969,7.969,0,0,1,0,15.937Z" transform="translate(-207.532 -223.937)"/><path class="a" d="M249.675,325.871a1.738,1.738,0,0,1-1.738-1.738v-2.606a1.738,1.738,0,0,1,3.475,0v2.606A1.738,1.738,0,0,1,249.675,325.871Z" transform="translate(-241.706 -292.265)"/><path class="a" d="M249.675,147.4a1.737,1.737,0,0,1-1.738-1.738v-2.606a1.738,1.738,0,1,1,3.475,0v2.606A1.737,1.737,0,0,1,249.675,147.4Z" transform="translate(-241.706 -141.315)"/></g></g></svg>