<svg xmlns="http://www.w3.org/2000/svg" width="64" height="42.057" viewBox="0 0 64 42.057"><defs><style>.a{fill:#fff;}</style></defs><g transform="translate(-13.838 -96.865)"><path class="a" d="M75.1,138.922H16.581a2.743,2.743,0,0,1-2.743-2.743V99.608a2.743,2.743,0,0,1,2.743-2.743H75.1a2.743,2.743,0,0,1,2.743,2.743v36.571A2.743,2.743,0,0,1,75.1,138.922ZM16.581,98.694a.914.914,0,0,0-.914.914v36.571a.914.914,0,0,0,.914.914H75.1a.914.914,0,0,0,.914-.914V99.608a.914.914,0,0,0-.914-.914Z"/><path class="a" d="M99.9,169.464H63.827a.914.914,0,0,1-.914-.914,6.656,6.656,0,0,0-6.648-6.648.914.914,0,0,1-.914-.914V146.854a.914.914,0,0,1,.914-.914,6.656,6.656,0,0,0,6.648-6.648.914.914,0,0,1,.914-.914H99.9a.914.914,0,0,1,.914.914,6.656,6.656,0,0,0,6.648,6.648.914.914,0,0,1,.914.914v14.133a.914.914,0,0,1-.914.914,6.656,6.656,0,0,0-6.648,6.648A.914.914,0,0,1,99.9,169.464Zm-35.211-1.829H99.038a8.492,8.492,0,0,1,7.513-7.513v-12.4a8.492,8.492,0,0,1-7.513-7.513H64.692a8.492,8.492,0,0,1-7.513,7.513v12.4A8.492,8.492,0,0,1,64.692,167.635Z" transform="translate(-36.027 -36.027)"/><path class="a" d="M349.457,236.489a3.5,3.5,0,1,1,3.505-3.5A3.5,3.5,0,0,1,349.457,236.489Zm0-5.18a1.676,1.676,0,1,0,1.677,1.676A1.676,1.676,0,0,0,349.457,231.309Z" transform="translate(-288.228 -115.091)"/><path class="a" d="M116.518,236.489a3.5,3.5,0,1,1,3.5-3.5A3.5,3.5,0,0,1,116.518,236.489Zm0-5.18a1.676,1.676,0,1,0,1.676,1.676A1.676,1.676,0,0,0,116.518,231.309Z" transform="translate(-86.071 -115.091)"/><path class="a" d="M228.463,207.845a4.193,4.193,0,1,1,4.193-4.193h0a.914.914,0,1,1-1.829,0,2.364,2.364,0,1,0-2.364,2.364h0a.914.914,0,0,1,0,1.829Z" transform="translate(-182.625 -89.037)"/><path class="a" d="M228.463,257.467a4.2,4.2,0,0,1-4.193-4.193.914.914,0,1,1,1.829,0,2.364,2.364,0,1,0,2.364-2.364.914.914,0,1,1,0-1.829,4.193,4.193,0,0,1,0,8.386Z" transform="translate(-182.625 -132.102)"/><path class="a" d="M250,301.89a.914.914,0,0,1-.914-.914V299.6a.914.914,0,0,1,1.829,0v1.371A.914.914,0,0,1,250,301.89Z" transform="translate(-204.157 -175.155)"/><path class="a" d="M250,192.294a.914.914,0,0,1-.914-.914v-1.371a.914.914,0,0,1,1.829,0v1.371A.914.914,0,0,1,250,192.294Z" transform="translate(-204.157 -80.042)"/></g></svg>