<svg xmlns="http://www.w3.org/2000/svg" width="64" height="63.596" viewBox="0 0 64 63.596"><defs><style>.a{fill:#fff;}</style></defs><g transform="translate(0 -0.001)"><path class="a" d="M60.8,84.973H3.2a3.143,3.143,0,0,0-3.2,3.2v32a3.143,3.143,0,0,0,3.2,3.2H8.533v-2.133H3.2a1.008,1.008,0,0,1-1.067-1.067v-32A1.008,1.008,0,0,1,3.2,87.106H13.867v3.2H16v-3.2H60.8a1.008,1.008,0,0,1,1.067,1.067v32a1.008,1.008,0,0,1-1.067,1.067H21.333v2.133H60.8a3.143,3.143,0,0,0,3.2-3.2v-32A3.143,3.143,0,0,0,60.8,84.973Zm0,0" transform="translate(0 -73.642)"/><path class="a" d="M104,148.973h2.133v4.267H104Zm0,0" transform="translate(-90.133 -129.109)"/><path class="a" d="M104,204.973h2.133v4.267H104Zm0,0" transform="translate(-90.133 -177.642)"/><path class="a" d="M104,260.973h2.133v4.267H104Zm0,0" transform="translate(-90.133 -226.176)"/><path class="a" d="M32,132.973h7.467v2.133H32Zm0,0" transform="translate(-27.733 -115.242)"/><path class="a" d="M32,156.973h5.333v2.133H32Zm0,0" transform="translate(-27.733 -136.042)"/><path class="a" d="M241.113,160.171l12.814-23.507,1.873,1.021-12.814,23.507Zm0,0" transform="translate(-208.965 -118.441)"/><path class="a" d="M212.8,140.973a4.8,4.8,0,1,0,4.8,4.8A4.78,4.78,0,0,0,212.8,140.973Zm0,7.467a2.667,2.667,0,1,1,2.667-2.667A2.641,2.641,0,0,1,212.8,148.44Zm0,0" transform="translate(-180.267 -122.176)"/><path class="a" d="M304,257.773a4.8,4.8,0,1,0,4.8-4.8A4.78,4.78,0,0,0,304,257.773Zm4.8-2.667a2.667,2.667,0,1,1-2.667,2.667A2.641,2.641,0,0,1,308.8,255.106Zm0,0" transform="translate(-263.467 -219.242)"/><path class="a" d="M84.747,2.051a1.008,1.008,0,0,1,1.173.96l.746,6.4L88.8,9.2l-.746-6.4A3.25,3.25,0,0,0,84.426.024L31.2,7.064,31.52,9.2Zm0,0" transform="translate(-27.04 0)"/><path class="a" d="M36.267,253.773H35.2v2.133h1.067a3.143,3.143,0,0,1,3.2,3.2v1.067a3.2,3.2,0,0,1-6.4,0v-6.72l-2.986-5.227,8.213-14.187-1.813-1.067-7.68,13.12-7.573-13.12-1.813,1.067,8.213,14.187-3.093,5.227v6.72a3.2,3.2,0,0,1-6.4,0v-1.067a3.143,3.143,0,0,1,3.2-3.2H22.4v-2.133H21.333A5.282,5.282,0,0,0,16,259.107v1.067a5.333,5.333,0,0,0,10.667,0v-6.08L28.8,250.36l2.133,3.733v6.08a5.333,5.333,0,0,0,10.667,0v-1.067A5.282,5.282,0,0,0,36.267,253.773Zm0,0" transform="translate(-13.867 -201.909)"/></g></svg>