<svg width="48" height="49" viewBox="0 0 48 49" fill="none" xmlns="http://www.w3.org/2000/svg">
<mask id="mask0_244_27834" style="mask-type:alpha" maskUnits="userSpaceOnUse" x="0" y="0" width="48" height="49">
<g clip-path="url(#clip0_244_27834)">
<path d="M8.82087 20.2631C9.24339 20.264 9.66192 20.1822 10.0523 20.0223C10.4426 19.8624 10.797 19.6276 11.095 19.3314L14.3775 16.0862C14.494 15.9779 14.6479 15.9176 14.8078 15.9176C14.9677 15.9176 15.1216 15.9779 15.2381 16.0862L18.5332 19.3439C18.8312 19.64 19.1856 19.8748 19.5759 20.0347C19.9663 20.1946 20.3848 20.2765 20.8073 20.2755H21.4513L17.2956 24.3871C16.9865 24.6936 16.6194 24.9368 16.2151 25.1027C15.8109 25.2686 15.3775 25.354 14.9397 25.354C14.502 25.354 14.0686 25.2686 13.6644 25.1027C13.2601 24.9368 12.8929 24.6936 12.5839 24.3871L8.41567 20.2631H8.82087Z" fill="white"/>
<path d="M20.8073 9.17967C19.9544 9.18014 19.1365 9.5152 18.5332 10.1113L15.2413 13.3689C15.1246 13.4782 14.9701 13.539 14.8094 13.539C14.6487 13.539 14.4942 13.4782 14.3775 13.3689L11.1045 10.1206C10.807 9.82459 10.4532 9.58982 10.0633 9.4299C9.67353 9.26999 9.25549 9.1881 8.83345 9.18899H8.43766L12.5965 5.08667C12.9051 4.77945 13.2721 4.53562 13.6764 4.36923C14.0808 4.20285 14.5144 4.11719 14.9523 4.11719C15.3903 4.11719 15.8239 4.20285 16.2282 4.36923C16.6325 4.53562 16.9995 4.77945 17.3081 5.08667L21.4701 9.17967H20.8073Z" fill="white"/>
<path d="M4.97929 12.4032L7.46076 9.94983H8.82086C9.41688 9.95166 9.98807 10.186 10.4103 10.602L13.6927 13.8472C13.8387 13.9927 14.0124 14.1082 14.2038 14.1871C14.3952 14.2659 14.6005 14.3065 14.8078 14.3065C15.0151 14.3065 15.2204 14.2659 15.4118 14.1871C15.6032 14.1082 15.7769 13.9927 15.9229 13.8472L19.2179 10.5927C19.6393 10.1756 20.211 9.94099 20.8073 9.94052H22.4124L24.9096 12.4063C25.22 12.7116 25.4663 13.0745 25.6343 13.4742C25.8024 13.8739 25.8889 14.3025 25.8889 14.7354C25.8889 15.1682 25.8024 15.5968 25.6343 15.9965C25.4663 16.3962 25.22 16.7592 24.9096 17.0645L22.4124 19.5209H20.801C20.205 19.5191 19.6338 19.2847 19.2116 18.8687L15.9166 15.6111C15.6164 15.3284 15.2177 15.1707 14.8031 15.1707C14.3885 15.1707 13.9898 15.3284 13.6896 15.6111L10.4134 18.8563C9.99045 19.273 9.41797 19.5074 8.82086 19.5085H7.46076L4.97929 17.052C4.66892 16.7467 4.42263 16.3838 4.25457 15.9841C4.08651 15.5844 4 15.1558 4 14.7229C4 14.2901 4.08651 13.8615 4.25457 13.4618C4.42263 13.0621 4.66892 12.6991 4.97929 12.3938" fill="white"/>
<path d="M37.949 30.1172H44V44.854H37.9586L37.949 30.1172ZM34.4954 30.1172H36.227V44.854H34.4954V30.1172ZM29.3102 30.1172H33.9182V44.854H29.3199V30.1172H29.3102ZM23.2593 30.1172H27.0014V44.854H23.24L23.2593 30.1172ZM19.8057 30.1172H21.5373V44.854H19.8057V30.1172ZM15.1977 30.1172H18.6513V44.854H15.1977V30.1172ZM12.0231 44.854V30.1172H13.7547V44.854H12.0231ZM4 30.1172H9.77201V44.854H4V30.1172Z" fill="#7B61FF"/>
</g>
</mask>
<g mask="url(#mask0_244_27834)">
<rect y="0.117188" width="48" height="48" fill="#20B6D7"/>
</g>
<defs>
<clipPath id="clip0_244_27834">
<rect width="48" height="48" fill="white" transform="translate(0 0.117188)"/>
</clipPath>
</defs>
</svg>
