<svg width="40" height="40" viewBox="0 0 40 40" fill="none" xmlns="http://www.w3.org/2000/svg">
<path d="M8.80969 29.961C9.58181 29.9628 10.3466 29.8115 11.06 29.5159C11.7733 29.2203 12.4209 28.7863 12.9655 28.239L18.9639 22.2406C19.1768 22.0404 19.4581 21.9289 19.7503 21.9289C20.0425 21.9289 20.3238 22.0404 20.5367 22.2406L26.558 28.2619C27.1026 28.8093 27.7503 29.2433 28.4636 29.5389C29.1769 29.8344 29.9417 29.9857 30.7139 29.9839H31.8906L24.2965 37.5838C23.7317 38.1503 23.0608 38.5998 22.322 38.9065C21.5833 39.2131 20.7913 39.371 19.9914 39.371C19.1915 39.371 18.3995 39.2131 17.6607 38.9065C16.922 38.5998 16.251 38.1503 15.6863 37.5838L8.06922 29.961H8.80969Z" fill="#20B6D7"/>
<path d="M30.7139 9.47459C29.1552 9.47546 27.6606 10.0948 26.5581 11.1966L20.5425 17.218C20.3292 17.4198 20.0468 17.5323 19.7532 17.5323C19.4596 17.5323 19.1771 17.4198 18.9639 17.218L12.9828 11.2138C12.4392 10.6666 11.7926 10.2327 11.0802 9.93712C10.3678 9.64154 9.60392 9.49017 8.83267 9.49181H8.10941L15.7093 1.90916C16.2732 1.3413 16.9439 0.890607 17.6828 0.583061C18.4217 0.275514 19.2141 0.117188 20.0144 0.117188C20.8147 0.117188 21.6071 0.275514 22.3459 0.583061C23.0848 0.890607 23.7555 1.3413 24.3194 1.90916L31.9251 9.47459H30.7139Z" fill="#20B6D7"/>
<path d="M1.78956 15.4328L6.32423 10.8981H8.80969C9.89887 10.9015 10.9427 11.3347 11.7142 12.1036L17.7126 18.1019C17.9794 18.371 18.2968 18.5845 18.6465 18.7302C18.9963 18.8759 19.3714 18.9509 19.7503 18.9509C20.1292 18.9509 20.5043 18.8759 20.8541 18.7302C21.2038 18.5845 21.5212 18.371 21.788 18.1019L27.8094 12.0863C28.5795 11.3154 29.6242 10.8818 30.7139 10.8809H33.6471L38.2104 15.4386C38.7776 16.0029 39.2277 16.6737 39.5348 17.4125C39.8419 18.1513 40 18.9435 40 19.7436C40 20.5437 39.8419 21.3359 39.5348 22.0747C39.2277 22.8135 38.7776 23.4844 38.2104 24.0487L33.6471 28.5891H30.7024C29.6132 28.5857 28.5694 28.1525 27.7979 27.3837L21.7766 21.3623C21.2279 20.8398 20.4993 20.5483 19.7417 20.5483C18.984 20.5483 18.2554 20.8398 17.7068 21.3623L11.7199 27.3607C10.947 28.131 9.90086 28.5643 8.80969 28.5661H6.32423L1.78956 24.0257C1.22239 23.4614 0.772321 22.7906 0.465209 22.0518C0.158096 21.313 0 20.5208 0 19.7207C0 18.9206 0.158096 18.1284 0.465209 17.3896C0.772321 16.6507 1.22239 15.9799 1.78956 15.4156" fill="#20B6D7"/>
</svg>
